<?xml version="1.0" encoding="UTF-8"?>
<svg xmlns="http://www.w3.org/2000/svg" xmlns:xlink="http://www.w3.org/1999/xlink" width="1037" height="244" viewBox="0 0 1037.28 243.84" version="1.1">
<g id="surface1">
<path style=" stroke:none;fill-rule:nonzero;fill:rgb(50.19989%,50.19989%,50.19989%);fill-opacity:1;" d="M 360.492188 18.230469 C 356.496094 18.785156 353.402344 22.105469 353.402344 32.265625 C 353.402344 56.144531 353.410156 90.238281 353.40625 123.960938 C 353.402344 154.671875 353.402344 185.074219 353.40625 207.101562 L 353.40625 226.574219 L 260.175781 133.347656 L 267.71875 129.875 L 270.675781 121.035156 L 337.277344 187.636719 L 337.277344 34.105469 C 336.933594 24.023438 338.515625 18.566406 345.105469 13.835938 "/>
<path style=" stroke:none;fill-rule:nonzero;fill:rgb(50.19989%,50.19989%,50.19989%);fill-opacity:1;" d="M 175.9375 225.03125 C 182.53125 220.300781 182.714844 216.382812 182.371094 206.300781 L 182.371094 52.769531 L 241.546875 111.945312 L 246.414062 103.527344 L 256.441406 104.03125 L 166.242188 13.835938 L 166.242188 33.304688 C 166.25 55.332031 166.246094 85.738281 166.242188 116.449219 C 166.238281 150.171875 166.246094 184.265625 166.246094 208.144531 C 166.246094 218.304688 162.359375 223.769531 158.363281 224.324219 Z M 175.9375 225.03125 "/>
<path style=" stroke:none;fill-rule:nonzero;fill:rgb(80.799866%,41.999817%,0%);fill-opacity:1;" d="M 84.472656 32.960938 L 86.324219 35.316406 C 86.34375 35.308594 86.363281 35.296875 86.378906 35.289062 Z M 55.625 154.601562 C 55.847656 154.601562 56.410156 154.652344 57.207031 154.75 C 82.410156 157.835938 96.425781 145.128906 103.746094 133.867188 C 104.449219 132.472656 112.894531 114.84375 105.273438 92.605469 C 98.296875 72.265625 87.832031 45.273438 84.503906 36.753906 C 76.957031 42.699219 48.195312 65.4375 40.695312 72.632812 L 39.140625 74.113281 C 30.070312 82.707031 14.890625 97.089844 18.65625 121.871094 C 22.382812 146.410156 51.589844 154.335938 55.617188 154.601562 Z M 64.835938 161.230469 C 62.179688 161.230469 59.394531 161.0625 56.476562 160.703125 C 56.03125 160.648438 55.699219 160.605469 55.5 160.59375 C 51.769531 160.59375 17.222656 152.363281 12.726562 122.773438 C 8.492188 94.894531 25.746094 78.542969 35.015625 69.761719 L 36.542969 68.308594 C 45.367188 59.835938 81.105469 31.792969 82.625 30.601562 L 82.691406 30.554688 C 84.574219 29.15625 86.085938 29.328125 87.023438 29.714844 C 88.183594 30.191406 88.828125 31.152344 89.09375 32.027344 C 90.117188 34.628906 102.855469 67.066406 110.945312 90.664062 C 119.734375 116.296875 109.429688 135.96875 108.984375 136.792969 L 108.863281 137.003906 C 101.480469 148.425781 88.023438 161.230469 64.835938 161.230469 "/>
<path style=" stroke:none;fill-rule:nonzero;fill:rgb(0%,34.098816%,69.398499%);fill-opacity:1;" d="M 64.203125 98.351562 C 51.90625 98.351562 41.902344 108.359375 41.902344 120.65625 C 41.902344 130.683594 48.648438 139.535156 58.308594 142.175781 C 60.21875 142.695312 62.199219 142.960938 64.203125 142.960938 C 76.503906 142.960938 86.507812 132.957031 86.507812 120.65625 C 86.507812 108.359375 76.503906 98.351562 64.203125 98.351562 M 64.203125 148.957031 C 61.667969 148.957031 59.152344 148.621094 56.726562 147.957031 C 44.464844 144.605469 35.902344 133.378906 35.902344 120.65625 C 35.902344 105.050781 48.601562 92.355469 64.203125 92.355469 C 79.808594 92.355469 92.507812 105.050781 92.507812 120.65625 C 92.507812 136.261719 79.808594 148.957031 64.203125 148.957031 "/>
<path style=" stroke:none;fill-rule:nonzero;fill:rgb(80.799866%,41.999817%,0%);fill-opacity:1;" d="M 402.691406 107.445312 C 401.992188 108.839844 393.542969 126.46875 401.167969 148.707031 C 408.140625 169.050781 418.605469 196.042969 421.933594 204.558594 C 429.484375 198.617188 458.246094 175.878906 465.742188 168.679688 L 467.300781 167.199219 C 476.367188 158.605469 491.546875 144.222656 487.785156 119.441406 C 484.058594 94.902344 454.847656 86.976562 450.820312 86.714844 C 450.574219 86.714844 450.039062 86.660156 449.234375 86.5625 C 424.015625 83.46875 410.011719 96.179688 402.691406 107.445312 M 420.117188 205.996094 C 420.09375 206.007812 420.074219 206.015625 420.058594 206.023438 L 421.964844 208.351562 Z M 420.796875 211.875 C 420.25 211.875 419.785156 211.753906 419.414062 211.597656 C 418.253906 211.117188 417.609375 210.160156 417.347656 209.285156 C 416.320312 206.675781 403.585938 174.242188 395.496094 150.652344 C 386.707031 125.015625 397.011719 105.347656 397.453125 104.523438 L 397.578125 104.3125 C 405.804688 91.582031 421.574219 77.132812 449.960938 80.609375 C 450.410156 80.664062 450.738281 80.710938 450.9375 80.71875 C 454.667969 80.71875 489.21875 88.949219 493.710938 118.539062 C 497.949219 146.417969 480.691406 162.769531 471.421875 171.554688 L 469.894531 173.007812 C 461.070312 181.480469 425.332031 209.523438 423.816406 210.710938 L 423.75 210.761719 C 422.617188 211.601562 421.617188 211.875 420.796875 211.875 "/>
<path style=" stroke:none;fill-rule:nonzero;fill:rgb(0%,34.098816%,69.398499%);fill-opacity:1;" d="M 442.234375 98.351562 C 429.9375 98.351562 419.929688 108.359375 419.929688 120.65625 C 419.929688 132.957031 429.9375 142.960938 442.234375 142.960938 C 454.53125 142.960938 464.539062 132.957031 464.539062 120.65625 C 464.539062 110.628906 457.792969 101.78125 448.132812 99.136719 C 446.21875 98.617188 444.234375 98.351562 442.234375 98.351562 M 442.234375 148.957031 C 426.628906 148.957031 413.933594 136.261719 413.933594 120.65625 C 413.933594 105.050781 426.628906 92.355469 442.234375 92.355469 C 444.765625 92.355469 447.285156 92.691406 449.710938 93.355469 C 461.972656 96.707031 470.535156 107.933594 470.535156 120.65625 C 470.535156 136.261719 457.839844 148.957031 442.234375 148.957031 "/>
<path style=" stroke:none;fill-rule:nonzero;fill:rgb(0%,34.098816%,69.398499%);fill-opacity:1;" d="M 261.925781 104.515625 L 256.46875 102.035156 L 257.410156 99.976562 C 281.058594 48.800781 309.101562 21.414062 345.660156 13.796875 C 374.277344 7.828125 404.953125 18.914062 427.714844 43.441406 C 444.089844 61.082031 451.992188 81.785156 447.855469 96.183594 L 442.089844 94.527344 C 445.605469 82.296875 438.0625 63.402344 423.320312 47.519531 C 402 24.546875 373.425781 14.132812 346.882812 19.667969 C 312.339844 26.867188 285.636719 53.183594 262.855469 102.492188 Z M 261.925781 104.515625 "/>
<path style=" stroke:none;fill-rule:nonzero;fill:rgb(0%,34.098816%,69.398499%);fill-opacity:1;" d="M 142.980469 231.507812 C 116.363281 231.511719 97.714844 220.453125 79.195312 204.050781 C 53.777344 181.535156 53.71875 147.382812 53.726562 145.9375 L 59.722656 145.976562 C 59.722656 146.304688 59.832031 178.890625 83.171875 199.5625 C 105.523438 219.359375 126.667969 230.277344 162.941406 223.550781 L 163.273438 223.507812 C 163.699219 223.472656 207.746094 218.976562 245.417969 136.59375 C 245.640625 136.082031 245.878906 135.523438 246.105469 134.960938 L 251.664062 137.203125 C 251.417969 137.820312 251.160156 138.433594 250.890625 139.042969 C 212.390625 223.238281 167.605469 229.128906 163.886719 229.472656 C 156.375 230.859375 149.441406 231.507812 142.980469 231.507812 "/>
<path style=" stroke:none;fill-rule:nonzero;fill:rgb(0%,34.098816%,69.398499%);fill-opacity:1;" d="M 254.707031 108.152344 C 248.914062 108.152344 244.203125 112.867188 244.203125 118.65625 C 244.203125 124.449219 248.914062 129.160156 254.707031 129.160156 C 255.761719 129.160156 256.785156 129.003906 257.746094 128.710938 C 262.058594 127.40625 265.210938 123.390625 265.210938 118.65625 C 265.210938 113.933594 262.035156 109.769531 257.484375 108.523438 C 256.585938 108.277344 255.648438 108.152344 254.707031 108.152344 M 256.386719 139.011719 C 243.34375 140.0625 232.570312 128.769531 234.511719 115.574219 C 235.46875 109.0625 239.585938 103.265625 245.503906 100.375 C 250.179688 98.089844 255.371094 97.664062 260.101562 98.957031 C 269.976562 101.65625 276.523438 111.429688 274.875 121.882812 C 273.425781 131.066406 265.65625 138.265625 256.386719 139.011719 "/>
<path style=" stroke:none;fill-rule:nonzero;fill:rgb(80.799866%,41.999817%,0%);fill-opacity:1;" d="M 609.148438 122.726562 L 545.148438 38.734375 L 545.148438 100.289062 C 545.148438 103.9375 545.242188 106.742188 545.4375 108.703125 C 545.628906 110.671875 546.203125 112.179688 547.160156 113.234375 C 548.117188 114.195312 549.605469 115.011719 551.621094 115.679688 C 553.632812 116.351562 556.507812 116.878906 560.25 117.261719 C 560.441406 118.796875 560.441406 120.332031 560.25 121.863281 C 557.375 121.863281 554.183594 121.816406 550.683594 121.71875 C 547.183594 121.625 544.238281 121.578125 541.839844 121.578125 C 539.441406 121.578125 536.492188 121.625 532.996094 121.71875 C 529.496094 121.816406 526.355469 121.863281 523.574219 121.863281 C 523.289062 120.425781 523.289062 118.894531 523.574219 117.261719 C 527.027344 116.78125 529.710938 116.328125 531.628906 115.894531 C 533.546875 115.464844 534.9375 114.792969 535.800781 113.882812 C 536.664062 112.972656 537.214844 111.605469 537.453125 109.78125 C 537.691406 107.960938 537.8125 105.421875 537.8125 102.160156 L 537.8125 43.195312 C 537.8125 39.359375 537.691406 36.339844 537.453125 34.132812 C 537.214844 31.929688 536.59375 30.273438 535.585938 29.171875 C 534.578125 28.070312 533.042969 27.253906 530.980469 26.726562 C 528.917969 26.199219 526.066406 25.746094 522.425781 25.359375 C 522.328125 23.921875 522.328125 22.4375 522.425781 20.902344 C 525.398438 20.902344 528.558594 20.949219 531.917969 21.046875 C 535.273438 21.140625 538.628906 21.1875 541.984375 21.1875 L 545.941406 21.1875 C 548.097656 21.1875 549.988281 21.140625 551.621094 21.046875 L 610.011719 97.847656 L 610.011719 42.617188 C 610.011719 38.976562 609.941406 36.144531 609.796875 34.132812 C 609.652344 32.121094 609.054688 30.632812 607.996094 29.675781 C 605.984375 27.566406 601.140625 26.222656 593.472656 25.648438 C 593.1875 24.015625 593.1875 22.484375 593.472656 21.046875 C 595.292969 21.046875 597.472656 21.070312 600.015625 21.117188 C 602.554688 21.167969 605.027344 21.214844 607.425781 21.261719 C 609.816406 21.308594 611.785156 21.332031 613.320312 21.332031 C 615.714844 21.332031 618.691406 21.285156 622.238281 21.1875 C 625.785156 21.09375 628.945312 21.046875 631.730469 21.046875 C 631.921875 22.484375 631.921875 23.96875 631.730469 25.503906 C 627.125 26.078125 623.820312 26.726562 621.808594 27.445312 C 619.792969 28.164062 618.546875 29.484375 618.066406 31.398438 C 617.585938 33.320312 617.347656 36.433594 617.347656 40.75 L 617.347656 122.007812 C 616.386719 122.199219 615.09375 122.367188 613.464844 122.511719 C 611.832031 122.65625 610.394531 122.726562 609.148438 122.726562 "/>
<path style=" stroke:none;fill-rule:nonzero;fill:rgb(80.799866%,41.999817%,0%);fill-opacity:1;" d="M 644.960938 25.792969 C 644.960938 23.011719 645.941406 20.664062 647.910156 18.746094 C 649.871094 16.828125 652.246094 15.867188 655.027344 15.867188 C 657.710938 15.867188 660.039062 16.828125 662.003906 18.746094 C 663.96875 20.664062 664.949219 22.964844 664.949219 25.648438 C 664.949219 28.140625 663.992188 30.417969 662.074219 32.480469 C 660.15625 34.542969 657.710938 35.570312 654.738281 35.570312 C 652.054688 35.570312 649.753906 34.613281 647.835938 32.695312 C 645.917969 30.777344 644.960938 28.476562 644.960938 25.792969 M 673.722656 121.863281 C 671.039062 121.863281 668.257812 121.816406 665.382812 121.722656 C 662.507812 121.625 659.390625 121.578125 656.03125 121.578125 C 652.964844 121.578125 649.871094 121.625 646.757812 121.722656 C 643.644531 121.816406 640.644531 121.863281 637.769531 121.863281 C 637.480469 120.332031 637.480469 118.84375 637.769531 117.40625 C 641.027344 117.214844 643.425781 116.902344 644.960938 116.46875 C 646.492188 116.039062 647.5 115.105469 647.980469 113.667969 C 648.460938 112.226562 648.699219 109.925781 648.699219 106.761719 L 648.699219 74.546875 C 648.699219 70.808594 648.554688 68.027344 648.269531 66.207031 C 647.980469 64.382812 647.09375 63.113281 645.609375 62.394531 C 644.121094 61.675781 641.554688 61.078125 637.914062 60.597656 C 637.625 59.253906 637.625 58.007812 637.914062 56.855469 C 642.132812 56.089844 646.160156 55.132812 649.996094 53.980469 C 653.828125 52.828125 657.519531 51.585938 661.070312 50.242188 L 663.511719 51.105469 C 663.417969 54.078125 663.34375 56.855469 663.300781 59.445312 C 663.25 62.035156 663.226562 64.480469 663.226562 66.78125 L 663.226562 105.324219 C 663.226562 109.066406 663.441406 111.75 663.871094 113.378906 C 664.304688 115.011719 665.261719 116.039062 666.75 116.46875 C 668.234375 116.902344 670.5625 117.214844 673.722656 117.40625 C 674.011719 118.84375 674.011719 120.332031 673.722656 121.863281 "/>
<path style=" stroke:none;fill-rule:nonzero;fill:rgb(80.799866%,41.999817%,0%);fill-opacity:1;" d="M 713.132812 95.113281 C 717.347656 95.113281 720.585938 93.410156 722.835938 90.007812 C 725.089844 86.605469 726.21875 81.882812 726.21875 75.839844 C 726.21875 69.707031 725.066406 64.863281 722.769531 61.316406 C 720.464844 57.769531 717.109375 55.992188 712.699219 55.992188 C 708.578125 55.992188 705.386719 57.648438 703.136719 60.957031 C 700.882812 64.261719 699.753906 68.9375 699.753906 74.980469 C 699.753906 81.117188 700.929688 86.003906 703.28125 89.648438 C 705.628906 93.292969 708.910156 95.113281 713.132812 95.113281 M 701.769531 124.023438 C 696.589844 128.335938 694.003906 132.890625 694.003906 137.683594 C 694.003906 141.039062 695.007812 143.773438 697.023438 145.882812 C 699.035156 147.992188 701.671875 149.523438 704.933594 150.484375 C 708.191406 151.441406 711.644531 151.921875 715.289062 151.921875 C 718.546875 151.921875 721.949219 151.441406 725.5 150.484375 C 729.042969 149.523438 732.066406 147.824219 734.558594 145.378906 C 737.050781 142.933594 738.300781 139.503906 738.300781 135.09375 C 738.300781 131.070312 736.882812 128.191406 734.058594 126.464844 C 731.226562 124.738281 725.976562 123.878906 718.308594 123.878906 C 716.484375 123.878906 714.234375 123.902344 711.546875 123.949219 C 708.863281 123.996094 705.890625 124.023438 702.628906 124.023438 Z M 708.8125 158.394531 C 700.378906 158.394531 693.570312 156.90625 688.394531 153.9375 C 683.214844 150.964844 680.625 146.839844 680.625 141.566406 C 680.625 137.445312 682.0625 134.039062 684.941406 131.355469 C 687.820312 128.671875 691.363281 125.984375 695.582031 123.300781 C 691.847656 122.441406 689.015625 120.929688 687.101562 118.773438 C 685.179688 116.613281 684.222656 114.050781 684.222656 111.078125 C 684.222656 105.898438 688.011719 100.675781 695.582031 95.402344 C 692.417969 93.386719 689.878906 90.777344 687.960938 87.5625 C 686.042969 84.351562 685.085938 80.636719 685.085938 76.417969 C 685.085938 71.144531 686.449219 66.613281 689.183594 62.824219 C 691.914062 59.039062 695.511719 56.113281 699.972656 54.050781 C 704.429688 51.992188 709.195312 50.960938 714.28125 50.960938 C 721.757812 50.960938 727.992188 53.023438 732.980469 57.144531 C 738.15625 53.023438 743.234375 50.960938 748.222656 50.960938 C 750.714844 50.960938 752.679688 51.511719 754.117188 52.613281 C 755.558594 53.71875 756.273438 55.324219 756.273438 57.433594 C 756.273438 59.542969 755.605469 61.222656 754.265625 62.464844 C 752.917969 63.710938 751.289062 64.335938 749.375 64.335938 C 747.550781 64.335938 745.992188 63.785156 744.699219 62.679688 C 743.402344 61.578125 742.566406 60.019531 742.183594 58.007812 C 740.839844 58.296875 739.757812 58.632812 738.949219 59.011719 C 738.128906 59.398438 737.195312 59.925781 736.140625 60.59375 C 739.398438 64.71875 741.03125 69.609375 741.03125 75.265625 C 741.03125 80.539062 739.734375 85.023438 737.148438 88.714844 C 734.558594 92.40625 731.132812 95.234375 726.863281 97.199219 C 722.597656 99.164062 717.921875 100.148438 712.84375 100.148438 C 708.046875 100.148438 703.589844 99.285156 699.46875 97.558594 C 697.070312 99.957031 695.875 102.496094 695.875 105.179688 C 695.875 107.578125 696.78125 109.089844 698.601562 109.710938 C 700.425781 110.335938 703.78125 110.648438 708.671875 110.648438 C 710.875 110.648438 713.515625 110.621094 716.582031 110.574219 C 719.648438 110.527344 721.902344 110.5 723.34375 110.5 C 732.929688 110.5 739.832031 112.207031 744.054688 115.609375 C 748.273438 119.011719 750.378906 123.683594 750.378906 129.628906 C 750.378906 134.328125 749.230469 138.476562 746.929688 142.070312 C 744.628906 145.667969 741.511719 148.6875 737.578125 151.132812 C 733.648438 153.574219 729.210938 155.398438 724.277344 156.597656 C 719.339844 157.792969 714.183594 158.394531 708.8125 158.394531 "/>
<path style=" stroke:none;fill-rule:nonzero;fill:rgb(80.799866%,41.999817%,0%);fill-opacity:1;" d="M 797.265625 109.78125 L 797.554688 88.210938 C 788.730469 89.359375 782.667969 91.230469 779.363281 93.820312 C 776.054688 96.40625 774.398438 99.714844 774.398438 103.742188 C 774.398438 107.101562 775.285156 109.664062 777.058594 111.4375 C 778.832031 113.210938 781.058594 114.097656 783.746094 114.097656 C 785.472656 114.097656 787.414062 113.714844 789.570312 112.945312 C 791.730469 112.179688 794.292969 111.128906 797.265625 109.78125 M 809.203125 123.15625 C 802.875 123.15625 798.894531 119.996094 797.265625 113.667969 C 790.457031 120.1875 783.507812 123.445312 776.414062 123.445312 C 771.523438 123.445312 767.375 121.984375 763.96875 119.058594 C 760.566406 116.136719 758.863281 112.085938 758.863281 106.90625 C 758.863281 94.25 771.761719 86.292969 797.554688 83.03125 C 797.554688 80.730469 797.578125 78.382812 797.625 75.984375 C 797.671875 73.589844 797.699219 71.046875 797.699219 68.363281 C 797.699219 65.007812 796.476562 62.394531 794.03125 60.523438 C 791.585938 58.65625 788.636719 57.71875 785.1875 57.71875 C 782.691406 57.71875 780.582031 58.105469 778.855469 58.871094 C 778.855469 61.078125 778.375 63.328125 777.417969 65.628906 C 776.460938 67.929688 775.140625 69.871094 773.464844 71.453125 C 771.785156 73.035156 769.746094 73.828125 767.351562 73.828125 C 765.238281 73.828125 763.585938 73.230469 762.390625 72.03125 C 761.191406 70.832031 760.59375 69.371094 760.59375 67.644531 C 760.59375 65.34375 761.671875 63.164062 763.828125 61.101562 C 765.984375 59.039062 768.738281 57.265625 772.097656 55.777344 C 775.453125 54.292969 778.953125 53.117188 782.597656 52.253906 C 786.238281 51.390625 789.5 50.960938 792.375 50.960938 C 795.921875 50.960938 799.210938 51.609375 802.226562 52.902344 C 805.25 54.195312 807.695312 56.113281 809.5625 58.65625 C 811.433594 61.195312 812.367188 64.335938 812.367188 68.074219 C 812.367188 70.375 812.320312 73.375 812.222656 77.0625 C 812.128906 80.757812 812.054688 84.6875 812.007812 88.859375 C 811.960938 93.027344 811.886719 96.984375 811.789062 100.722656 C 811.695312 104.460938 811.648438 107.480469 811.648438 109.78125 C 811.648438 112.851562 812.992188 114.386719 815.675781 114.386719 C 817.402344 114.386719 820.035156 113.808594 823.585938 112.660156 C 823.96875 113.140625 824.234375 113.667969 824.375 114.242188 C 824.523438 114.816406 824.640625 115.34375 824.734375 115.824219 C 822.339844 118.414062 819.820312 120.28125 817.1875 121.433594 C 814.546875 122.582031 811.886719 123.15625 809.203125 123.15625 "/>
<path style=" stroke:none;fill-rule:nonzero;fill:rgb(80.799866%,41.999817%,0%);fill-opacity:1;" d="M 916.207031 121.863281 C 915.917969 120.332031 915.917969 118.84375 916.207031 117.40625 C 919.082031 117.214844 921.238281 116.902344 922.679688 116.46875 C 924.117188 116.039062 925.097656 115.105469 925.628906 113.667969 C 926.152344 112.226562 926.417969 109.925781 926.417969 106.761719 L 926.417969 77.710938 C 926.417969 72.054688 925.578125 67.789062 923.898438 64.910156 C 922.222656 62.035156 918.792969 60.597656 913.617188 60.597656 C 907.191406 60.597656 901.726562 62.992188 897.222656 67.789062 C 897.414062 69.320312 897.507812 70.949219 897.507812 72.675781 L 897.507812 105.324219 C 897.507812 109.066406 897.722656 111.75 898.15625 113.378906 C 898.585938 115.011719 899.523438 116.039062 900.960938 116.46875 C 902.398438 116.902344 904.605469 117.214844 907.578125 117.40625 C 907.769531 118.84375 907.769531 120.332031 907.578125 121.863281 C 904.890625 121.863281 902.207031 121.816406 899.523438 121.71875 C 896.835938 121.625 893.671875 121.578125 890.03125 121.578125 C 886.480469 121.578125 883.390625 121.625 880.753906 121.71875 C 878.117188 121.816406 875.601562 121.863281 873.203125 121.863281 C 872.914062 120.332031 872.914062 118.84375 873.203125 117.40625 C 875.984375 117.214844 878.066406 116.902344 879.460938 116.46875 C 880.847656 116.039062 881.785156 115.105469 882.265625 113.667969 C 882.742188 112.226562 882.984375 109.925781 882.984375 106.761719 L 882.984375 77.710938 C 882.984375 72.054688 882.167969 67.789062 880.539062 64.910156 C 878.910156 62.035156 875.457031 60.597656 870.179688 60.597656 C 864.144531 60.597656 858.871094 63.042969 854.363281 67.929688 L 854.363281 105.324219 C 854.363281 109.066406 854.578125 111.75 855.011719 113.378906 C 855.441406 115.011719 856.398438 116.039062 857.886719 116.46875 C 859.371094 116.902344 861.648438 117.214844 864.71875 117.40625 C 864.910156 118.84375 864.910156 120.332031 864.71875 121.863281 C 862.03125 121.863281 859.273438 121.816406 856.449219 121.71875 C 853.617188 121.625 850.382812 121.578125 846.738281 121.578125 C 843.289062 121.578125 840.171875 121.625 837.394531 121.71875 C 834.609375 121.816406 831.785156 121.863281 828.90625 121.863281 C 828.617188 120.332031 828.617188 118.84375 828.90625 117.40625 C 832.164062 117.214844 834.5625 116.902344 836.097656 116.46875 C 837.632812 116.039062 838.636719 115.105469 839.117188 113.667969 C 839.597656 112.226562 839.835938 109.925781 839.835938 106.761719 L 839.835938 74.546875 C 839.835938 70.808594 839.667969 68.027344 839.332031 66.207031 C 838.996094 64.382812 838.085938 63.113281 836.601562 62.394531 C 835.113281 61.675781 832.597656 61.078125 829.050781 60.597656 C 828.761719 59.253906 828.761719 58.007812 829.050781 56.855469 C 833.078125 56.089844 836.960938 55.179688 840.699219 54.125 C 844.4375 53.070312 848.128906 51.773438 851.773438 50.242188 L 854.21875 51.105469 L 854.21875 61.746094 C 861.984375 54.554688 870.085938 50.960938 878.527344 50.960938 C 883.796875 50.960938 887.777344 52.0625 890.460938 54.269531 C 893.144531 56.472656 895.015625 59.207031 896.070312 62.464844 C 900.195312 58.535156 904.410156 55.632812 908.730469 53.765625 C 913.042969 51.894531 917.402344 50.960938 921.816406 50.960938 C 928.144531 50.960938 932.914062 52.828125 936.125 56.570312 C 939.335938 60.308594 940.945312 65.679688 940.945312 72.675781 L 940.945312 105.324219 C 940.945312 109.066406 941.136719 111.75 941.519531 113.378906 C 941.902344 115.011719 942.8125 116.039062 944.253906 116.46875 C 945.691406 116.902344 947.894531 117.214844 950.867188 117.40625 C 951.15625 118.84375 951.15625 120.332031 950.867188 121.863281 C 948.183594 121.863281 945.496094 121.816406 942.8125 121.71875 C 940.128906 121.625 937.007812 121.578125 933.464844 121.578125 C 929.820312 121.578125 926.632812 121.625 923.898438 121.71875 C 921.167969 121.816406 918.601562 121.863281 916.207031 121.863281 "/>
<path style=" stroke:none;fill-rule:nonzero;fill:rgb(80.799866%,41.999817%,0%);fill-opacity:1;" d="M 997.03125 109.78125 L 997.320312 88.210938 C 988.496094 89.359375 982.4375 91.230469 979.128906 93.820312 C 975.820312 96.40625 974.164062 99.714844 974.164062 103.742188 C 974.164062 107.101562 975.050781 109.664062 976.824219 111.4375 C 978.597656 113.210938 980.828125 114.097656 983.515625 114.097656 C 985.238281 114.097656 987.183594 113.714844 989.339844 112.945312 C 991.496094 112.179688 994.058594 111.128906 997.03125 109.78125 M 1008.96875 123.15625 C 1002.644531 123.15625 998.660156 119.996094 997.03125 113.667969 C 990.222656 120.1875 983.273438 123.445312 976.179688 123.445312 C 971.289062 123.445312 967.140625 121.984375 963.734375 119.058594 C 960.332031 116.136719 958.628906 112.085938 958.628906 106.90625 C 958.628906 94.25 971.527344 86.292969 997.320312 83.03125 C 997.320312 80.730469 997.34375 78.382812 997.394531 75.984375 C 997.4375 73.589844 997.464844 71.046875 997.464844 68.363281 C 997.464844 65.007812 996.242188 62.394531 993.796875 60.523438 C 991.351562 58.65625 988.402344 57.71875 984.953125 57.71875 C 982.457031 57.71875 980.347656 58.105469 978.625 58.871094 C 978.625 61.078125 978.140625 63.328125 977.1875 65.628906 C 976.226562 67.929688 974.90625 69.871094 973.230469 71.453125 C 971.550781 73.035156 969.515625 73.828125 967.117188 73.828125 C 965.007812 73.828125 963.351562 73.230469 962.15625 72.03125 C 960.957031 70.832031 960.359375 69.371094 960.359375 67.644531 C 960.359375 65.34375 961.4375 63.164062 963.59375 61.101562 C 965.75 59.039062 968.503906 57.265625 971.863281 55.777344 C 975.21875 54.292969 978.71875 53.117188 982.363281 52.253906 C 986.003906 51.390625 989.265625 50.960938 992.140625 50.960938 C 995.6875 50.960938 998.976562 51.609375 1001.992188 52.902344 C 1005.015625 54.195312 1007.460938 56.113281 1009.328125 58.65625 C 1011.199219 61.195312 1012.132812 64.335938 1012.132812 68.074219 C 1012.132812 70.375 1012.085938 73.375 1011.988281 77.0625 C 1011.894531 80.757812 1011.820312 84.6875 1011.773438 88.859375 C 1011.726562 93.027344 1011.652344 96.984375 1011.558594 100.722656 C 1011.460938 104.460938 1011.417969 107.480469 1011.417969 109.78125 C 1011.417969 112.851562 1012.757812 114.386719 1015.441406 114.386719 C 1017.167969 114.386719 1019.800781 113.808594 1023.351562 112.660156 C 1023.734375 113.140625 1024 113.667969 1024.140625 114.242188 C 1024.289062 114.816406 1024.40625 115.34375 1024.503906 115.824219 C 1022.105469 118.414062 1019.589844 120.28125 1016.953125 121.433594 C 1014.3125 122.582031 1011.652344 123.15625 1008.96875 123.15625 "/>
<path style=" stroke:none;fill-rule:nonzero;fill:rgb(80.799866%,41.999817%,0%);fill-opacity:1;" d="M 524.699219 229.421875 C 524.570312 228.460938 524.570312 227.441406 524.699219 226.351562 C 527.769531 226.035156 529.972656 225.730469 531.316406 225.441406 C 532.660156 225.152344 533.488281 224.53125 533.808594 223.574219 C 534.128906 222.613281 534.289062 220.984375 534.289062 218.683594 L 534.289062 174.097656 C 534.289062 171.414062 534.128906 169.496094 533.808594 168.34375 C 533.488281 167.195312 532.671875 166.441406 531.363281 166.089844 C 530.054688 165.742188 527.925781 165.4375 524.988281 165.179688 C 524.859375 164.222656 524.859375 163.199219 524.988281 162.113281 C 526.523438 162.113281 527.816406 162.128906 528.871094 162.160156 C 529.925781 162.191406 531.03125 162.207031 532.179688 162.207031 C 533.328125 162.207031 534.785156 162.222656 536.542969 162.257812 C 538.300781 162.289062 540.648438 162.304688 543.589844 162.304688 C 547.234375 162.304688 550.9375 162.289062 554.710938 162.257812 C 558.480469 162.222656 561.984375 162.207031 565.210938 162.207031 C 568.4375 162.207031 571.058594 162.191406 573.074219 162.160156 C 575.085938 162.128906 576.15625 162.113281 576.285156 162.113281 C 576.605469 164.542969 576.957031 167.066406 577.339844 169.6875 C 577.726562 172.308594 578.136719 175.089844 578.585938 178.027344 C 578.074219 178.09375 577.546875 178.125 577.003906 178.125 C 576.460938 178.125 575.933594 178.09375 575.421875 178.027344 C 573.761719 173.746094 571.8125 170.742188 569.574219 169.015625 C 567.273438 167.164062 563.660156 166.234375 558.738281 166.234375 L 544.835938 166.234375 L 544.835938 193.371094 L 551.164062 193.371094 C 554.234375 193.371094 556.566406 193.164062 558.164062 192.746094 C 559.761719 192.332031 560.945312 191.402344 561.710938 189.964844 C 562.480469 188.527344 563.085938 186.242188 563.535156 183.109375 C 564.683594 182.917969 565.769531 182.917969 566.792969 183.109375 C 566.730469 185.792969 566.679688 187.921875 566.652344 189.484375 C 566.617188 191.054688 566.601562 192.285156 566.601562 193.179688 L 566.601562 198.066406 C 566.601562 198.964844 566.617188 200.210938 566.652344 201.808594 C 566.679688 203.40625 566.730469 205.578125 566.792969 208.328125 C 565.835938 208.519531 564.75 208.519531 563.535156 208.328125 C 563.148438 204.941406 562.574219 202.496094 561.804688 200.992188 C 561.039062 199.492188 559.90625 198.546875 558.402344 198.164062 C 556.902344 197.78125 554.773438 197.589844 552.027344 197.589844 L 544.835938 197.589844 L 544.835938 217.4375 C 544.835938 219.417969 544.898438 220.953125 545.027344 222.039062 C 545.15625 223.125 545.539062 223.988281 546.179688 224.625 C 546.816406 225.203125 547.792969 225.585938 549.101562 225.777344 C 550.410156 225.96875 552.316406 226.160156 554.808594 226.351562 C 555 227.375 555 228.398438 554.808594 229.421875 C 553.464844 229.421875 551.835938 229.40625 549.917969 229.371094 C 548 229.339844 546.097656 229.308594 544.214844 229.277344 C 542.328125 229.246094 540.746094 229.230469 539.46875 229.230469 C 538.253906 229.230469 536.75 229.246094 534.960938 229.277344 C 533.171875 229.308594 531.363281 229.339844 529.542969 229.371094 C 527.722656 229.40625 526.109375 229.421875 524.699219 229.421875 "/>
<path style=" stroke:none;fill-rule:nonzero;fill:rgb(80.799866%,41.999817%,0%);fill-opacity:1;" d="M 589.324219 205.738281 C 589.324219 212.257812 590.398438 217.421875 592.535156 221.222656 C 594.675781 225.027344 597.890625 226.925781 602.171875 226.925781 C 606.261719 226.925781 609.398438 225.121094 611.570312 221.511719 C 613.742188 217.898438 614.832031 213.058594 614.832031 206.984375 C 614.832031 200.527344 613.742188 195.382812 611.570312 191.546875 C 609.398438 187.710938 606.234375 185.792969 602.078125 185.792969 C 597.984375 185.792969 594.839844 187.554688 592.632812 191.070312 C 590.429688 194.585938 589.324219 199.476562 589.324219 205.738281 M 601.695312 230.476562 C 597.027344 230.476562 592.953125 229.46875 589.46875 227.457031 C 585.984375 225.441406 583.285156 222.660156 581.367188 219.113281 C 579.449219 215.566406 578.492188 211.492188 578.492188 206.886719 C 578.492188 201.902344 579.496094 197.558594 581.511719 193.847656 C 583.523438 190.140625 586.351562 187.265625 589.996094 185.21875 C 593.640625 183.175781 597.828125 182.152344 602.554688 182.152344 C 607.222656 182.152344 611.28125 183.175781 614.730469 185.21875 C 618.183594 187.265625 620.871094 190.078125 622.789062 193.65625 C 624.707031 197.238281 625.664062 201.296875 625.664062 205.835938 C 625.664062 210.5 624.65625 214.703125 622.644531 218.441406 C 620.628906 222.179688 617.832031 225.121094 614.253906 227.261719 C 610.671875 229.402344 606.488281 230.476562 601.695312 230.476562 "/>
<path style=" stroke:none;fill-rule:nonzero;fill:rgb(80.799866%,41.999817%,0%);fill-opacity:1;" d="M 651.167969 230.476562 C 647.011719 230.476562 643.800781 229.246094 641.53125 226.785156 C 639.261719 224.324219 638.128906 220.761719 638.128906 216.09375 L 638.128906 196.722656 C 638.128906 194.230469 638.015625 192.378906 637.792969 191.164062 C 637.566406 189.953125 636.960938 189.085938 635.972656 188.574219 C 634.980469 188.066406 633.304688 187.648438 630.9375 187.328125 C 630.617188 186.5 630.617188 185.699219 630.9375 184.933594 C 633.6875 184.550781 636.320312 184.132812 638.847656 183.6875 C 641.375 183.238281 643.914062 182.695312 646.472656 182.054688 L 647.910156 182.726562 C 647.84375 184.707031 647.796875 186.578125 647.765625 188.335938 C 647.730469 190.09375 647.71875 191.738281 647.71875 193.273438 L 647.71875 212.640625 C 647.71875 216.476562 648.308594 219.339844 649.488281 221.222656 C 650.675781 223.109375 652.992188 224.050781 656.441406 224.050781 C 658.363281 224.050781 660.164062 223.621094 661.859375 222.757812 C 663.554688 221.894531 665.167969 220.632812 666.703125 218.96875 L 666.703125 196.722656 C 666.703125 194.230469 666.589844 192.378906 666.367188 191.164062 C 666.140625 189.953125 665.535156 189.085938 664.546875 188.574219 C 663.554688 188.066406 661.875 187.648438 659.507812 187.328125 C 659.316406 186.5 659.316406 185.699219 659.507812 184.933594 C 662.261719 184.550781 664.894531 184.132812 667.421875 183.6875 C 669.945312 183.238281 672.515625 182.695312 675.140625 182.054688 L 676.574219 182.726562 C 676.515625 184.707031 676.464844 186.578125 676.433594 188.335938 C 676.402344 190.09375 676.386719 191.738281 676.386719 193.273438 L 676.386719 218.105469 C 676.386719 220.023438 676.496094 221.460938 676.722656 222.421875 C 676.945312 223.378906 677.585938 224.066406 678.636719 224.480469 C 679.691406 224.898438 681.433594 225.234375 683.863281 225.488281 C 683.929688 226.257812 683.929688 227.054688 683.863281 227.886719 C 681.113281 228.144531 678.496094 228.460938 676.003906 228.847656 C 673.507812 229.230469 671.078125 229.707031 668.714844 230.285156 L 667.179688 229.613281 L 666.988281 222.902344 C 661.683594 227.949219 656.410156 230.476562 651.167969 230.476562 "/>
<path style=" stroke:none;fill-rule:nonzero;fill:rgb(80.799866%,41.999817%,0%);fill-opacity:1;" d="M 717.996094 229.421875 C 717.867188 228.398438 717.867188 227.40625 717.996094 226.449219 C 719.976562 226.320312 721.449219 226.113281 722.410156 225.824219 C 723.363281 225.539062 724.003906 224.914062 724.324219 223.957031 C 724.644531 222.996094 724.804688 221.460938 724.804688 219.355469 L 724.804688 199.984375 C 724.804688 196.152344 724.210938 193.289062 723.03125 191.402344 C 721.847656 189.519531 719.5 188.574219 715.984375 188.574219 C 714.128906 188.574219 712.339844 188.910156 710.613281 189.582031 C 708.890625 190.253906 707.003906 191.515625 704.957031 193.371094 L 704.957031 218.394531 C 704.957031 220.886719 705.101562 222.679688 705.386719 223.761719 C 705.675781 224.851562 706.300781 225.539062 707.257812 225.824219 C 708.21875 226.113281 709.71875 226.320312 711.765625 226.449219 C 711.890625 227.40625 711.890625 228.398438 711.765625 229.421875 C 709.976562 229.421875 708.105469 229.386719 706.15625 229.324219 C 704.207031 229.261719 702.113281 229.230469 699.875 229.230469 C 697.828125 229.230469 695.816406 229.261719 693.835938 229.324219 C 691.851562 229.386719 689.902344 229.421875 687.988281 229.421875 C 687.796875 228.398438 687.796875 227.40625 687.988281 226.449219 C 690.15625 226.320312 691.757812 226.113281 692.78125 225.824219 C 693.800781 225.539062 694.472656 224.914062 694.792969 223.957031 C 695.113281 222.996094 695.273438 221.460938 695.273438 219.355469 L 695.273438 197.875 C 695.273438 195.382812 695.160156 193.53125 694.9375 192.3125 C 694.710938 191.101562 694.105469 190.253906 693.117188 189.773438 C 692.121094 189.292969 690.449219 188.898438 688.082031 188.574219 C 687.890625 187.679688 687.890625 186.851562 688.082031 186.082031 C 693.578125 184.996094 698.628906 183.527344 703.230469 181.671875 L 704.859375 182.246094 L 704.859375 189.4375 C 707.800781 186.753906 710.679688 184.867188 713.492188 183.78125 C 716.304688 182.695312 718.988281 182.152344 721.542969 182.152344 C 725.761719 182.152344 728.992188 183.398438 731.226562 185.890625 C 733.46875 188.382812 734.585938 191.964844 734.585938 196.628906 L 734.585938 218.394531 C 734.585938 220.886719 734.730469 222.679688 735.015625 223.761719 C 735.304688 224.851562 735.925781 225.539062 736.886719 225.824219 C 737.84375 226.113281 739.378906 226.320312 741.488281 226.449219 C 741.617188 227.40625 741.617188 228.398438 741.488281 229.421875 C 739.570312 229.421875 737.703125 229.386719 735.878906 229.324219 C 734.058594 229.261719 731.929688 229.230469 729.503906 229.230469 C 727.136719 229.230469 725.078125 229.261719 723.320312 229.324219 C 721.5625 229.386719 719.785156 229.421875 717.996094 229.421875 "/>
<path style=" stroke:none;fill-rule:nonzero;fill:rgb(80.799866%,41.999817%,0%);fill-opacity:1;" d="M 781.085938 191.738281 C 778.335938 187.96875 774.726562 186.082031 770.253906 186.082031 C 765.839844 186.082031 762.515625 187.699219 760.277344 190.925781 C 758.039062 194.152344 756.925781 198.613281 756.925781 204.300781 C 756.925781 207.625 757.371094 210.820312 758.265625 213.886719 C 759.160156 216.957031 760.628906 219.480469 762.675781 221.460938 C 764.722656 223.445312 767.4375 224.433594 770.828125 224.433594 C 775.109375 224.433594 778.527344 222.582031 781.085938 218.875 Z M 783.097656 230.570312 L 781.566406 229.902344 L 781.183594 223.285156 C 778.941406 225.714844 776.660156 227.519531 774.324219 228.703125 C 771.992188 229.882812 769.421875 230.476562 766.609375 230.476562 C 762.644531 230.476562 759.179688 229.402344 756.207031 227.261719 C 753.230469 225.121094 750.945312 222.324219 749.351562 218.875 C 747.75 215.421875 746.953125 211.683594 746.953125 207.65625 C 746.953125 202.992188 747.957031 198.738281 749.972656 194.902344 C 751.984375 191.066406 754.832031 187.984375 758.503906 185.652344 C 762.183594 183.320312 766.480469 182.152344 771.402344 182.152344 C 772.871094 182.152344 774.40625 182.265625 776.003906 182.488281 C 777.601562 182.710938 779.265625 183.078125 780.992188 183.589844 L 780.992188 171.316406 C 780.992188 169.335938 780.800781 167.851562 780.414062 166.859375 C 780.03125 165.867188 779.277344 165.164062 778.160156 164.75 C 777.042969 164.332031 775.363281 164.03125 773.128906 163.839844 C 772.9375 163.007812 772.9375 162.144531 773.128906 161.25 C 775.683594 160.929688 778.304688 160.433594 780.992188 159.761719 C 783.675781 159.09375 786.421875 158.148438 789.234375 156.933594 L 790.863281 157.511719 C 790.804688 158.917969 790.753906 160.515625 790.722656 162.304688 C 790.691406 164.09375 790.675781 166.042969 790.675781 168.152344 L 790.675781 215.710938 C 790.675781 218.140625 790.769531 219.960938 790.960938 221.175781 C 791.152344 222.390625 791.730469 223.238281 792.6875 223.714844 C 793.644531 224.195312 795.277344 224.628906 797.578125 225.011719 C 797.769531 225.839844 797.769531 226.703125 797.578125 227.597656 C 795.019531 227.984375 792.527344 228.398438 790.101562 228.84375 C 787.667969 229.292969 785.335938 229.867188 783.097656 230.570312 "/>
<path style=" stroke:none;fill-rule:nonzero;fill:rgb(80.799866%,41.999817%,0%);fill-opacity:1;" d="M 828.449219 221.367188 L 828.644531 206.984375 C 822.761719 207.753906 818.71875 209 816.511719 210.722656 C 814.308594 212.449219 813.207031 214.65625 813.207031 217.339844 C 813.207031 219.578125 813.796875 221.289062 814.980469 222.46875 C 816.160156 223.652344 817.648438 224.242188 819.4375 224.242188 C 820.589844 224.242188 821.882812 223.988281 823.320312 223.476562 C 824.757812 222.964844 826.46875 222.261719 828.449219 221.367188 M 836.410156 230.285156 C 832.1875 230.285156 829.539062 228.175781 828.449219 223.957031 C 823.910156 228.304688 819.277344 230.476562 814.546875 230.476562 C 811.289062 230.476562 808.523438 229.5 806.253906 227.550781 C 803.984375 225.601562 802.851562 222.902344 802.851562 219.449219 C 802.851562 211.011719 811.449219 205.707031 828.644531 203.53125 C 828.644531 202 828.65625 200.433594 828.691406 198.835938 C 828.722656 197.238281 828.738281 195.542969 828.738281 193.753906 C 828.738281 191.515625 827.925781 189.773438 826.292969 188.527344 C 824.664062 187.28125 822.695312 186.65625 820.394531 186.65625 C 818.734375 186.65625 817.328125 186.914062 816.175781 187.425781 C 816.175781 188.894531 815.855469 190.398438 815.21875 191.929688 C 814.582031 193.464844 813.699219 194.757812 812.582031 195.816406 C 811.464844 196.867188 810.105469 197.394531 808.507812 197.394531 C 807.101562 197.394531 806 196.996094 805.199219 196.199219 C 804.398438 195.398438 804 194.421875 804 193.273438 C 804 191.738281 804.71875 190.285156 806.15625 188.910156 C 807.59375 187.539062 809.433594 186.355469 811.671875 185.363281 C 813.910156 184.375 816.238281 183.589844 818.671875 183.015625 C 821.097656 182.4375 823.273438 182.152344 825.191406 182.152344 C 827.554688 182.152344 829.746094 182.582031 831.757812 183.445312 C 833.773438 184.308594 835.402344 185.589844 836.648438 187.28125 C 837.894531 188.976562 838.519531 191.066406 838.519531 193.5625 C 838.519531 195.09375 838.484375 197.09375 838.421875 199.554688 C 838.359375 202.015625 838.308594 204.636719 838.277344 207.417969 C 838.246094 210.195312 838.199219 212.832031 838.136719 215.328125 C 838.070312 217.820312 838.039062 219.832031 838.039062 221.367188 C 838.039062 223.414062 838.933594 224.433594 840.726562 224.433594 C 841.875 224.433594 843.628906 224.050781 845.996094 223.285156 C 846.25 223.605469 846.429688 223.957031 846.527344 224.339844 C 846.621094 224.722656 846.699219 225.074219 846.761719 225.394531 C 845.167969 227.121094 843.488281 228.367188 841.730469 229.132812 C 839.972656 229.902344 838.199219 230.285156 836.410156 230.285156 "/>
<path style=" stroke:none;fill-rule:nonzero;fill:rgb(80.799866%,41.999817%,0%);fill-opacity:1;" d="M 867.953125 230.476562 C 864.117188 230.476562 861.078125 229.566406 858.84375 227.742188 C 856.609375 225.921875 855.488281 223.285156 855.488281 219.832031 C 855.488281 214.207031 855.535156 208.773438 855.632812 203.53125 C 855.726562 198.292969 855.804688 193.242188 855.871094 188.382812 L 848.582031 188.382812 C 848.390625 187.425781 848.390625 186.5625 848.582031 185.796875 C 854.914062 183.109375 859.675781 178.734375 862.871094 172.660156 C 863.382812 172.660156 863.890625 172.675781 864.402344 172.707031 C 864.914062 172.738281 865.363281 172.789062 865.746094 172.851562 C 865.683594 174.515625 865.632812 176.269531 865.605469 178.125 C 865.570312 179.980469 865.523438 181.929688 865.460938 183.972656 L 880.035156 183.972656 C 880.222656 185.378906 880.222656 186.851562 880.035156 188.382812 L 865.460938 188.382812 C 865.332031 192.859375 865.25 197.574219 865.222656 202.527344 C 865.1875 207.480469 865.171875 212.449219 865.171875 217.433594 C 865.171875 222.613281 867.855469 225.203125 873.226562 225.203125 C 875.527344 225.203125 877.667969 224.59375 879.652344 223.378906 C 880.222656 224.148438 880.578125 225.105469 880.707031 226.257812 C 876.933594 229.070312 872.683594 230.476562 867.953125 230.476562 "/>
<path style=" stroke:none;fill-rule:nonzero;fill:rgb(80.799866%,41.999817%,0%);fill-opacity:1;" d="M 889.046875 165.371094 C 889.046875 163.519531 889.703125 161.953125 891.011719 160.675781 C 892.320312 159.394531 893.90625 158.757812 895.757812 158.757812 C 897.546875 158.757812 899.097656 159.394531 900.40625 160.675781 C 901.71875 161.953125 902.375 163.488281 902.375 165.277344 C 902.375 166.941406 901.734375 168.457031 900.457031 169.832031 C 899.175781 171.207031 897.546875 171.890625 895.566406 171.890625 C 893.777344 171.890625 892.242188 171.253906 890.964844 169.976562 C 889.6875 168.699219 889.046875 167.164062 889.046875 165.371094 M 908.222656 229.421875 C 906.433594 229.421875 904.578125 229.386719 902.664062 229.324219 C 900.746094 229.261719 898.667969 229.230469 896.429688 229.230469 C 894.382812 229.230469 892.320312 229.261719 890.246094 229.324219 C 888.167969 229.386719 886.171875 229.421875 884.253906 229.421875 C 884.0625 228.398438 884.0625 227.40625 884.253906 226.449219 C 886.425781 226.320312 888.023438 226.113281 889.046875 225.824219 C 890.070312 225.539062 890.742188 224.914062 891.0625 223.957031 C 891.382812 222.996094 891.539062 221.460938 891.539062 219.351562 L 891.539062 197.875 C 891.539062 195.382812 891.445312 193.53125 891.253906 192.316406 C 891.0625 191.101562 890.46875 190.253906 889.476562 189.773438 C 888.484375 189.296875 886.777344 188.894531 884.351562 188.574219 C 884.160156 187.679688 884.160156 186.851562 884.351562 186.082031 C 887.160156 185.570312 889.84375 184.933594 892.40625 184.164062 C 894.960938 183.398438 897.417969 182.566406 899.785156 181.671875 L 901.417969 182.246094 C 901.351562 184.230469 901.304688 186.082031 901.273438 187.808594 C 901.238281 189.535156 901.226562 191.164062 901.226562 192.699219 L 901.226562 218.394531 C 901.226562 220.886719 901.367188 222.679688 901.65625 223.765625 C 901.945312 224.851562 902.582031 225.539062 903.574219 225.824219 C 904.5625 226.113281 906.113281 226.320312 908.222656 226.449219 C 908.417969 227.40625 908.417969 228.398438 908.222656 229.421875 "/>
<path style=" stroke:none;fill-rule:nonzero;fill:rgb(80.799866%,41.999817%,0%);fill-opacity:1;" d="M 924.808594 205.738281 C 924.808594 212.257812 925.878906 217.421875 928.023438 221.222656 C 930.164062 225.027344 933.375 226.925781 937.65625 226.925781 C 941.75 226.925781 944.878906 225.121094 947.054688 221.511719 C 949.226562 217.898438 950.3125 213.058594 950.3125 206.984375 C 950.3125 200.527344 949.226562 195.382812 947.054688 191.546875 C 944.878906 187.710938 941.714844 185.792969 937.558594 185.792969 C 933.472656 185.792969 930.320312 187.554688 928.117188 191.070312 C 925.910156 194.585938 924.808594 199.476562 924.808594 205.738281 M 937.175781 230.476562 C 932.511719 230.476562 928.4375 229.46875 924.953125 227.457031 C 921.46875 225.441406 918.769531 222.660156 916.851562 219.113281 C 914.933594 215.566406 913.976562 211.492188 913.976562 206.886719 C 913.976562 201.902344 914.980469 197.558594 916.992188 193.847656 C 919.007812 190.140625 921.839844 187.265625 925.480469 185.21875 C 929.125 183.175781 933.308594 182.152344 938.042969 182.152344 C 942.703125 182.152344 946.765625 183.175781 950.21875 185.21875 C 953.671875 187.265625 956.355469 190.078125 958.273438 193.65625 C 960.191406 197.238281 961.148438 201.296875 961.148438 205.835938 C 961.148438 210.5 960.140625 214.703125 958.125 218.441406 C 956.113281 222.179688 953.320312 225.121094 949.738281 227.261719 C 946.160156 229.402344 941.972656 230.476562 937.175781 230.476562 "/>
<path style=" stroke:none;fill-rule:nonzero;fill:rgb(80.799866%,41.999817%,0%);fill-opacity:1;" d="M 997.582031 229.421875 C 997.453125 228.398438 997.453125 227.40625 997.582031 226.449219 C 999.5625 226.320312 1001.035156 226.113281 1001.992188 225.824219 C 1002.953125 225.539062 1003.589844 224.914062 1003.914062 223.957031 C 1004.230469 222.996094 1004.390625 221.460938 1004.390625 219.355469 L 1004.390625 199.984375 C 1004.390625 196.152344 1003.800781 193.289062 1002.617188 191.402344 C 1001.433594 189.519531 999.085938 188.574219 995.570312 188.574219 C 993.714844 188.574219 991.925781 188.910156 990.199219 189.582031 C 988.476562 190.253906 986.589844 191.515625 984.542969 193.371094 L 984.542969 218.394531 C 984.542969 220.886719 984.6875 222.679688 984.976562 223.761719 C 985.261719 224.851562 985.886719 225.539062 986.84375 225.824219 C 987.804688 226.113281 989.304688 226.320312 991.351562 226.449219 C 991.480469 227.40625 991.480469 228.398438 991.351562 229.421875 C 989.558594 229.421875 987.691406 229.386719 985.742188 229.324219 C 983.792969 229.261719 981.695312 229.230469 979.460938 229.230469 C 977.417969 229.230469 975.402344 229.261719 973.421875 229.324219 C 971.441406 229.386719 969.492188 229.421875 967.570312 229.421875 C 967.378906 228.398438 967.378906 227.40625 967.570312 226.449219 C 969.746094 226.320312 971.34375 226.113281 972.367188 225.824219 C 973.390625 225.539062 974.058594 224.914062 974.378906 223.957031 C 974.699219 222.996094 974.859375 221.460938 974.859375 219.355469 L 974.859375 197.875 C 974.859375 195.382812 974.75 193.53125 974.523438 192.3125 C 974.300781 191.101562 973.691406 190.253906 972.703125 189.773438 C 971.710938 189.292969 970.03125 188.898438 967.667969 188.574219 C 967.476562 187.679688 967.476562 186.851562 967.667969 186.082031 C 973.164062 184.996094 978.214844 183.527344 982.820312 181.671875 L 984.449219 182.246094 L 984.449219 189.4375 C 987.386719 186.753906 990.261719 184.867188 993.074219 183.78125 C 995.890625 182.695312 998.574219 182.152344 1001.132812 182.152344 C 1005.351562 182.152344 1008.574219 183.398438 1010.816406 185.890625 C 1013.050781 188.382812 1014.167969 191.964844 1014.167969 196.628906 L 1014.167969 218.394531 C 1014.167969 220.886719 1014.3125 222.679688 1014.601562 223.761719 C 1014.890625 224.851562 1015.511719 225.539062 1016.472656 225.824219 C 1017.429688 226.113281 1018.964844 226.320312 1021.074219 226.449219 C 1021.199219 227.40625 1021.199219 228.398438 1021.074219 229.421875 C 1019.15625 229.421875 1017.285156 229.386719 1015.464844 229.324219 C 1013.644531 229.261719 1011.519531 229.230469 1009.089844 229.230469 C 1006.722656 229.230469 1004.660156 229.261719 1002.902344 229.324219 C 1001.144531 229.386719 999.371094 229.421875 997.582031 229.421875 "/>
</g>
</svg>
