<?xml version="1.0" encoding="UTF-8"?>
<svg id="Layer_2" data-name="Layer 2" xmlns="http://www.w3.org/2000/svg" xmlns:xlink="http://www.w3.org/1999/xlink" viewBox="0 0 682.06 223.58">
  <defs>
    <style>
      .cls-1 {
        fill: url(#linear-gradient);
      }

      .cls-2 {
        fill: #f46933;
      }

      .cls-3 {
        fill: #005499;
      }
    </style>
    <linearGradient id="linear-gradient" x1="70.92" y1="186.27" x2="117.78" y2="117.61" gradientUnits="userSpaceOnUse">
      <stop offset=".16" stop-color="#005499"/>
      <stop offset=".25" stop-color="#245789"/>
      <stop offset=".48" stop-color="#7c5e65"/>
      <stop offset=".67" stop-color="#bc644a"/>
      <stop offset=".81" stop-color="#e46739"/>
      <stop offset=".88" stop-color="#f46933"/>
    </linearGradient>
  </defs>
  <g>
    <path class="cls-3" d="m304.61,196.4c-32.44,0-55.99-22.68-55.99-53.92s23.61-53.92,56.14-53.92c17.08,0,31.81,6.23,41.48,17.55l.47.55-13.49,12.69-.52-.56c-7.3-7.87-16.41-11.87-27.06-11.87-20.95,0-36.16,14.96-36.16,35.57s15.21,35.57,36.16,35.57c10.69,0,19.8-4.04,27.06-12.01l.52-.57,13.49,12.85-.47.55c-9.68,11.31-24.46,17.55-41.63,17.55Z"/>
    <path class="cls-3" d="m396.47,195.96c-14.57,0-27.01-5.18-35.01-14.57-7.75-9.1-10.81-21.55-8.63-35.05,2.62-16.21,15.28-29.01,31.5-31.84,3.15-.55,6.29-.83,9.33-.83,23.92,0,40.63,17.07,40.63,41.52,0,1.71-.19,4.2-.3,5.53l-.06.7h-61.66l.28.99c2.86,10.26,11.96,16.39,24.36,16.39,8.58,0,15.4-2.73,20.87-8.34l.58-.59,10.86,12.48-.42.5c-7.23,8.58-18.41,13.12-32.33,13.12Zm-2.81-66.01c-10.81,0-18.99,6.41-21.35,16.72l-.22.96h43.01l-.19-.94c-2.12-10.33-10.26-16.74-21.25-16.74Z"/>
    <path class="cls-3" d="m446.59,194.93v-78.84h19.98v78.84h-19.98Zm10.06-85.68c-7.17,0-12.57-5.09-12.57-11.84s5.41-11.83,12.57-11.83,12.57,4.9,12.57,11.39c0,7-5.41,12.28-12.57,12.28Z"/>
    <path class="cls-3" d="m481.45,223.58v-107.49h19.09v7.46l1.32-1.24c6.04-5.66,14.36-8.66,24.06-8.66,24.01,0,40.78,16.89,40.78,41.08s-16.77,41.22-40.78,41.22c-9.16,0-17.18-2.84-23.19-8.23l-1.31-1.17v37.01h-19.98Zm42.4-92.74c-13.38,0-22.72,9.83-22.72,23.9s9.34,23.9,22.72,23.9,22.57-9.83,22.57-23.9-9.28-23.9-22.57-23.9Z"/>
    <path class="cls-3" d="m605.28,195.96c-18.03,0-30.15-9.8-30.15-24.39,0-9.05,4.36-24.24,33.54-24.24h19.63v-.79c-.17-10.47-6.69-16-18.89-16-8.74,0-17.72,2.93-23.44,7.65l-.71.59-7.98-14.82.51-.39c8.27-6.39,20.29-9.91,33.84-9.91,2.06,0,4.16.09,6.23.26,17.06,1.4,30.42,16.02,30.42,33.27v47.74h-18.95v-7.91l-1.34,1.33c-5.01,4.98-12.86,7.62-22.72,7.62Zm4.73-34.85c-10.22,0-15.19,3.18-15.19,9.73s5.35,10.17,14.3,10.17,16.24-4.3,19.12-11.5l.06-.14v-8.26h-18.29Z"/>
    <rect class="cls-3" x="662.08" y="86.91" width="19.98" height="108.01"/>
  </g>
  <g>
    <g>
      <path class="cls-2" d="m157.61,72.84c-20.09,0-36.44-16.35-36.44-36.44S137.52-.03,157.61-.03s36.44,16.35,36.44,36.44-16.35,36.44-36.44,36.44Zm0-54.37c-9.89,0-17.93,8.04-17.93,17.93s8.04,17.93,17.93,17.93,17.93-8.04,17.93-17.93-8.04-17.93-17.93-17.93Z"/>
      <path class="cls-3" d="m53.44,77.28c-17.94,0-32.54-14.6-32.54-32.54S35.5,12.2,53.44,12.2s32.54,14.6,32.54,32.54-14.6,32.54-32.54,32.54Zm0-46.65c-7.78,0-14.11,6.33-14.11,14.12s6.33,14.11,14.11,14.11,14.12-6.33,14.12-14.11-6.33-14.12-14.12-14.12Z"/>
    </g>
    <g>
      <path class="cls-2" d="m157.87,84.06c-3.32-.11-24.5-.1-42.01,16.23l12.98,17.63c12.06-12.72,27.49-12.31,28.21-12.27,22.14-.29,40.39,17.61,40.37,39.78-1.47,41.27-53.4,58.75-87.72,11.73-3.39,6-7.6,14.24-12.14,19.55,23.67,27.85,50.54,30.12,58.65,30.12,82.26-1.77,83.84-118.9,1.67-122.76Z"/>
      <path class="cls-3" d="m53.72,172.4c-42.1-1.21-42.55-61.16-.48-62.98,12.74-.29,27.91,8.83,37.43,21.36,2.15-3.68,9.22-16.39,11.32-19.8C59.18,66.37,1.7,91.53.16,140.9c-.11,40.59,46.1,68.96,82.6,43.69l-12.71-17.26c-8.69,5.31-14.07,4.98-16.33,5.07Z"/>
      <path class="cls-1" d="m104.8,114.03s0,0,0,0c-.88,1.48-23.23,40.83-23.23,40.83-3.32,5.94-7.46,9.87-11.53,12.47l12.71,17.26c4.23-2.93,8.33-6.56,12.21-11h0c4.18-4.42,23.21-39.84,26.82-45.69,2.08-4.01,4.5-7.29,7.06-9.99l-12.98-17.63c-3.96,3.69-7.72,8.2-11.06,13.74Z"/>
    </g>
  </g>
</svg>